<svg class="headerLogo" fill="none" height="55" viewBox="0 0 433 55" width="433" xmlns="http://www.w3.org/2000/svg">
<path d="M56.6 0.5V54.6H34.9V36.9C34.9 34.7 35.5 32.6 36.7 30.7L56.6 0.5ZM0 0.5V54.6H21.7V36.9C21.7 34.7 21.1 32.6 19.9 30.7L0 0.5ZM153 33V45.9H160.9V33L172.8 12.3H163.9L157 25.2L150.1 12.3H141.3L153 33ZM197.8 12.3H183.9V45.8H191.8V33.8H197.8C205.2 33.8 209.8 29.9 209.8 23C209.8 16.6 205.7 12.3 197.8 12.3ZM191.8 27.5V19.1H196.3C199.2 19.1 201.1 20.4 201.1 23.3C201.1 25.8 199.6 27.5 196.3 27.5H191.8ZM220.8 45.9H228.7V32.6H232L240 45.8H249.2L240.3 31.5C245.1 30.3 247.8 27 247.8 22.1C247.8 15.8 243.3 12.3 235.7 12.3H220.8V45.9ZM228.7 26.9V19.3H234.9C237.6 19.3 239.1 20.7 239.1 23.1C239.1 25.4 237.7 26.9 234.9 26.9H228.7ZM275.3 46.4C285.8 46.4 292.8 39.6 292.8 29C292.8 18.5 285.8 11.7 275.3 11.7C264.8 11.7 257.8 18.5 257.8 29C257.8 39.6 264.8 46.4 275.3 46.4ZM275.3 39C270.2 39 266.5 35.3 266.5 29C266.5 22.8 270.1 19 275.3 19C280.5 19 284.1 22.8 284.1 29C284.1 35.4 280.5 39 275.3 39ZM310.2 45.9H318.2V19H328.4V12.3H300.1V19H310.3V45.9H310.2ZM364.3 45.9V38.9H347.5V32H362.3V25.5H347.5V19.2H363.9V12.3H339.6V45.8H364.3V45.9ZM387.7 12.3H379.8V45.8H387.7V12.3ZM411.1 45.9V25.4L424.1 45.8H433V12.3H425.2V33.3L412.2 12.3H403.3V45.8H411.1V45.9ZM121.4 12.3L110.3 32.9L99.2 12.2H90.3V45.7H98.1V25.4L106.9 41.8H113.9L122.7 25.5V45.9H130.5V12.3H121.4Z" fill="#003942"></path>
</svg>